<mxfile host="app.diagrams.net" modified="2024-03-01T06:31:07.308Z" agent="Mozilla/5.0 (Windows NT 10.0; Win64; x64) AppleWebKit/537.36 (KHTML, like Gecko) Chrome/122.0.0.0 Safari/537.36" etag="qAdWkRdwNlMWLHPhuLhn" version="23.1.8" type="github">
  <diagram id="C5RBs43oDa-KdzZeNtuy" name="Page-1">
    <mxGraphModel dx="1183" dy="687" grid="1" gridSize="10" guides="1" tooltips="1" connect="1" arrows="1" fold="1" page="1" pageScale="1" pageWidth="827" pageHeight="1169" math="0" shadow="0">
      <root>
        <mxCell id="WIyWlLk6GJQsqaUBKTNV-0" />
        <mxCell id="WIyWlLk6GJQsqaUBKTNV-1" parent="WIyWlLk6GJQsqaUBKTNV-0" />
        <mxCell id="WIyWlLk6GJQsqaUBKTNV-2" value="" style="rounded=0;html=1;jettySize=auto;orthogonalLoop=1;fontSize=11;endArrow=block;endFill=0;endSize=8;strokeWidth=1;shadow=0;labelBackgroundColor=none;edgeStyle=orthogonalEdgeStyle;" parent="WIyWlLk6GJQsqaUBKTNV-1" source="WIyWlLk6GJQsqaUBKTNV-3" target="WIyWlLk6GJQsqaUBKTNV-6" edge="1">
          <mxGeometry relative="1" as="geometry" />
        </mxCell>
        <mxCell id="WIyWlLk6GJQsqaUBKTNV-3" value="&lt;b&gt;Start&lt;/b&gt;" style="rounded=1;whiteSpace=wrap;html=1;fontSize=12;glass=0;strokeWidth=1;shadow=0;" parent="WIyWlLk6GJQsqaUBKTNV-1" vertex="1">
          <mxGeometry x="205" y="100" width="150" height="50" as="geometry" />
        </mxCell>
        <mxCell id="WIyWlLk6GJQsqaUBKTNV-4" value="&lt;b&gt;Yes&lt;/b&gt;" style="rounded=0;html=1;jettySize=auto;orthogonalLoop=1;fontSize=11;endArrow=block;endFill=0;endSize=8;strokeWidth=1;shadow=0;labelBackgroundColor=none;edgeStyle=orthogonalEdgeStyle;" parent="WIyWlLk6GJQsqaUBKTNV-1" source="WIyWlLk6GJQsqaUBKTNV-6" target="WIyWlLk6GJQsqaUBKTNV-10" edge="1">
          <mxGeometry x="0.0667" y="29" relative="1" as="geometry">
            <mxPoint x="-4" y="-15" as="offset" />
            <Array as="points">
              <mxPoint x="280" y="370" />
              <mxPoint x="280" y="370" />
            </Array>
          </mxGeometry>
        </mxCell>
        <mxCell id="XoOKAB7R_F1N4UgA0bkz-16" style="edgeStyle=orthogonalEdgeStyle;rounded=0;orthogonalLoop=1;jettySize=auto;html=1;exitX=1;exitY=0.5;exitDx=0;exitDy=0;entryX=0;entryY=0.5;entryDx=0;entryDy=0;" edge="1" parent="WIyWlLk6GJQsqaUBKTNV-1" source="WIyWlLk6GJQsqaUBKTNV-6" target="XoOKAB7R_F1N4UgA0bkz-14">
          <mxGeometry relative="1" as="geometry" />
        </mxCell>
        <mxCell id="WIyWlLk6GJQsqaUBKTNV-6" value="&lt;b&gt;Target != Nullptr&lt;/b&gt;" style="rhombus;whiteSpace=wrap;html=1;shadow=0;fontFamily=Helvetica;fontSize=12;align=center;strokeWidth=1;spacing=6;spacingTop=-4;" parent="WIyWlLk6GJQsqaUBKTNV-1" vertex="1">
          <mxGeometry x="220" y="220" width="120" height="100" as="geometry" />
        </mxCell>
        <mxCell id="WIyWlLk6GJQsqaUBKTNV-8" value="&lt;b&gt;No&lt;/b&gt;" style="rounded=0;html=1;jettySize=auto;orthogonalLoop=1;fontSize=11;endArrow=block;endFill=0;endSize=8;strokeWidth=1;shadow=0;labelBackgroundColor=none;edgeStyle=orthogonalEdgeStyle;entryX=0.5;entryY=0;entryDx=0;entryDy=0;" parent="WIyWlLk6GJQsqaUBKTNV-1" source="WIyWlLk6GJQsqaUBKTNV-10" target="XoOKAB7R_F1N4UgA0bkz-18" edge="1">
          <mxGeometry x="0.3333" y="20" relative="1" as="geometry">
            <mxPoint as="offset" />
            <mxPoint x="280" y="602.5" as="targetPoint" />
          </mxGeometry>
        </mxCell>
        <mxCell id="WIyWlLk6GJQsqaUBKTNV-9" value="&lt;b&gt;Yes&lt;/b&gt;" style="edgeStyle=orthogonalEdgeStyle;rounded=0;html=1;jettySize=auto;orthogonalLoop=1;fontSize=11;endArrow=block;endFill=0;endSize=8;strokeWidth=1;shadow=0;labelBackgroundColor=none;entryX=0;entryY=0.5;entryDx=0;entryDy=0;" parent="WIyWlLk6GJQsqaUBKTNV-1" source="WIyWlLk6GJQsqaUBKTNV-10" target="XoOKAB7R_F1N4UgA0bkz-5" edge="1">
          <mxGeometry y="10" relative="1" as="geometry">
            <mxPoint as="offset" />
            <mxPoint x="415" y="490" as="targetPoint" />
          </mxGeometry>
        </mxCell>
        <mxCell id="WIyWlLk6GJQsqaUBKTNV-10" value="&lt;b&gt;distance &amp;lt;= AttackRange&lt;/b&gt;" style="rhombus;whiteSpace=wrap;html=1;shadow=0;fontFamily=Helvetica;fontSize=12;align=center;strokeWidth=1;spacing=6;spacingTop=-4;" parent="WIyWlLk6GJQsqaUBKTNV-1" vertex="1">
          <mxGeometry x="205" y="390" width="150" height="120" as="geometry" />
        </mxCell>
        <mxCell id="XoOKAB7R_F1N4UgA0bkz-2" value="&lt;b&gt;No&lt;/b&gt;&lt;div&gt;&lt;br&gt;&lt;/div&gt;" style="text;html=1;align=center;verticalAlign=middle;resizable=0;points=[];autosize=1;strokeColor=none;fillColor=none;" vertex="1" parent="WIyWlLk6GJQsqaUBKTNV-1">
          <mxGeometry x="373.5" y="240" width="40" height="40" as="geometry" />
        </mxCell>
        <mxCell id="XoOKAB7R_F1N4UgA0bkz-4" value="&lt;b&gt;&lt;font style=&quot;font-size: 24px;&quot;&gt;Enemy가 순찰도는 로직 순서도&lt;/font&gt;&lt;/b&gt;" style="text;html=1;align=center;verticalAlign=middle;resizable=0;points=[];autosize=1;strokeColor=none;fillColor=none;" vertex="1" parent="WIyWlLk6GJQsqaUBKTNV-1">
          <mxGeometry x="280" y="13" width="360" height="40" as="geometry" />
        </mxCell>
        <mxCell id="XoOKAB7R_F1N4UgA0bkz-6" style="edgeStyle=orthogonalEdgeStyle;rounded=0;orthogonalLoop=1;jettySize=auto;html=1;entryX=0.5;entryY=0;entryDx=0;entryDy=0;" edge="1" parent="WIyWlLk6GJQsqaUBKTNV-1" source="XoOKAB7R_F1N4UgA0bkz-5" target="XoOKAB7R_F1N4UgA0bkz-19">
          <mxGeometry relative="1" as="geometry">
            <mxPoint x="665" y="450" as="targetPoint" />
          </mxGeometry>
        </mxCell>
        <mxCell id="XoOKAB7R_F1N4UgA0bkz-9" style="edgeStyle=orthogonalEdgeStyle;rounded=0;orthogonalLoop=1;jettySize=auto;html=1;entryX=0.5;entryY=0;entryDx=0;entryDy=0;" edge="1" parent="WIyWlLk6GJQsqaUBKTNV-1" source="XoOKAB7R_F1N4UgA0bkz-5">
          <mxGeometry relative="1" as="geometry">
            <mxPoint x="495" y="610" as="targetPoint" />
            <Array as="points">
              <mxPoint x="495" y="595" />
            </Array>
          </mxGeometry>
        </mxCell>
        <mxCell id="XoOKAB7R_F1N4UgA0bkz-5" value="State != Action &lt;br&gt;&lt;b&gt;&amp;amp;&amp;amp;&lt;/b&gt;&lt;br&gt;CurrentTime &amp;lt;=0" style="rhombus;whiteSpace=wrap;html=1;shadow=0;fontFamily=Helvetica;fontSize=12;align=center;strokeWidth=1;spacing=6;spacingTop=-4;" vertex="1" parent="WIyWlLk6GJQsqaUBKTNV-1">
          <mxGeometry x="420" y="390" width="150" height="120" as="geometry" />
        </mxCell>
        <mxCell id="XoOKAB7R_F1N4UgA0bkz-7" value="&lt;b&gt;Yes&lt;/b&gt;" style="text;html=1;align=center;verticalAlign=middle;resizable=0;points=[];autosize=1;strokeColor=none;fillColor=none;" vertex="1" parent="WIyWlLk6GJQsqaUBKTNV-1">
          <mxGeometry x="595" y="408" width="40" height="30" as="geometry" />
        </mxCell>
        <mxCell id="XoOKAB7R_F1N4UgA0bkz-13" value="&lt;b&gt;No&lt;/b&gt;" style="text;html=1;align=center;verticalAlign=middle;resizable=0;points=[];autosize=1;strokeColor=none;fillColor=none;" vertex="1" parent="WIyWlLk6GJQsqaUBKTNV-1">
          <mxGeometry x="450" y="525" width="40" height="30" as="geometry" />
        </mxCell>
        <mxCell id="XoOKAB7R_F1N4UgA0bkz-14" value="&lt;b&gt;END&lt;/b&gt;" style="rounded=1;whiteSpace=wrap;html=1;fontSize=12;glass=0;strokeWidth=1;shadow=0;" vertex="1" parent="WIyWlLk6GJQsqaUBKTNV-1">
          <mxGeometry x="440" y="245" width="150" height="50" as="geometry" />
        </mxCell>
        <mxCell id="XoOKAB7R_F1N4UgA0bkz-17" value="&lt;br&gt;&lt;b style=&quot;border-color: var(--border-color); color: rgb(0, 0, 0); font-family: Helvetica; font-size: 12px; font-style: normal; font-variant-ligatures: normal; font-variant-caps: normal; letter-spacing: normal; orphans: 2; text-indent: 0px; text-transform: none; widows: 2; word-spacing: 0px; -webkit-text-stroke-width: 0px; background-color: rgb(251, 251, 251); text-decoration-thickness: initial; text-decoration-style: initial; text-decoration-color: initial;&quot;&gt;주변에서 돌기&lt;br style=&quot;border-color: var(--border-color);&quot;&gt;(State = Strafe)&lt;/b&gt;&lt;div&gt;&lt;br/&gt;&lt;/div&gt;" style="rounded=0;whiteSpace=wrap;html=1;align=center;" vertex="1" parent="WIyWlLk6GJQsqaUBKTNV-1">
          <mxGeometry x="435" y="610" width="120" height="60" as="geometry" />
        </mxCell>
        <mxCell id="XoOKAB7R_F1N4UgA0bkz-21" style="edgeStyle=orthogonalEdgeStyle;rounded=0;orthogonalLoop=1;jettySize=auto;html=1;exitX=0.5;exitY=1;exitDx=0;exitDy=0;entryX=0;entryY=0.5;entryDx=0;entryDy=0;" edge="1" parent="WIyWlLk6GJQsqaUBKTNV-1" source="XoOKAB7R_F1N4UgA0bkz-18" target="XoOKAB7R_F1N4UgA0bkz-20">
          <mxGeometry relative="1" as="geometry" />
        </mxCell>
        <mxCell id="XoOKAB7R_F1N4UgA0bkz-18" value="&lt;b style=&quot;border-color: var(--border-color);&quot;&gt;Player를 향해&lt;br style=&quot;border-color: var(--border-color);&quot;&gt;다가가기&lt;br style=&quot;border-color: var(--border-color);&quot;&gt;(State = Approach)&lt;/b&gt;" style="rounded=0;whiteSpace=wrap;html=1;align=center;" vertex="1" parent="WIyWlLk6GJQsqaUBKTNV-1">
          <mxGeometry x="220" y="610" width="120" height="60" as="geometry" />
        </mxCell>
        <mxCell id="XoOKAB7R_F1N4UgA0bkz-23" style="edgeStyle=orthogonalEdgeStyle;rounded=0;orthogonalLoop=1;jettySize=auto;html=1;exitX=0.5;exitY=1;exitDx=0;exitDy=0;entryX=1;entryY=0.5;entryDx=0;entryDy=0;" edge="1" parent="WIyWlLk6GJQsqaUBKTNV-1" source="XoOKAB7R_F1N4UgA0bkz-19" target="XoOKAB7R_F1N4UgA0bkz-20">
          <mxGeometry relative="1" as="geometry" />
        </mxCell>
        <mxCell id="XoOKAB7R_F1N4UgA0bkz-19" value="CurrentTime = AttackCoolTIme&lt;b style=&quot;border-color: var(--border-color);&quot;&gt;&lt;br style=&quot;border-color: var(--border-color);&quot;&gt;Attack&lt;br style=&quot;border-color: var(--border-color);&quot;&gt;(State = Action)&lt;/b&gt;" style="rounded=0;whiteSpace=wrap;html=1;" vertex="1" parent="WIyWlLk6GJQsqaUBKTNV-1">
          <mxGeometry x="645" y="610" width="120" height="60" as="geometry" />
        </mxCell>
        <mxCell id="XoOKAB7R_F1N4UgA0bkz-20" value="&lt;b&gt;END&lt;/b&gt;" style="rounded=1;whiteSpace=wrap;html=1;fontSize=12;glass=0;strokeWidth=1;shadow=0;" vertex="1" parent="WIyWlLk6GJQsqaUBKTNV-1">
          <mxGeometry x="380" y="750" width="150" height="50" as="geometry" />
        </mxCell>
        <mxCell id="XoOKAB7R_F1N4UgA0bkz-22" style="edgeStyle=orthogonalEdgeStyle;rounded=0;orthogonalLoop=1;jettySize=auto;html=1;exitX=0.5;exitY=1;exitDx=0;exitDy=0;entryX=0.553;entryY=0.06;entryDx=0;entryDy=0;entryPerimeter=0;" edge="1" parent="WIyWlLk6GJQsqaUBKTNV-1" source="XoOKAB7R_F1N4UgA0bkz-17" target="XoOKAB7R_F1N4UgA0bkz-20">
          <mxGeometry relative="1" as="geometry" />
        </mxCell>
      </root>
    </mxGraphModel>
  </diagram>
</mxfile>
